<svg width="147" height="186" viewBox="0 0 147 186" fill="none" xmlns="http://www.w3.org/2000/svg">
<g clip-path="url(#clip0_12_618)">
<path d="M17.3044 19.3118C12.6006 24.4493 8.93098 30.2039 6.29552 36.5758C3.72677 42.8809 2.44238 49.1193 2.44238 55.291C2.44238 66.4 5.06118 75.4073 10.2988 82.3129C13.9017 87.0834 19.2393 91.2368 26.3117 94.773C29.3142 91.6037 32.9671 90.7364 37.2706 92.1709C41.6408 93.6387 43.8927 96.5911 44.0261 101.028L52.533 101.929C52.0993 95.657 54.4679 91.8372 59.6388 90.4695C64.7429 89.1017 69.8637 90.8031 75.0012 95.5736C78.1705 92.2376 81.5065 90.2693 85.0093 89.6688C88.1786 89.1017 90.9308 89.6521 93.266 91.3202C99.3043 87.2168 103.808 82.3462 106.777 76.7083C110.013 70.5367 111.631 62.9972 111.631 54.09C111.631 39.1445 106.26 26.6177 95.5179 16.5095C84.9426 6.60148 72.0655 1.64746 56.8865 1.64746C41.3072 1.64746 28.1132 7.53557 17.3044 19.3118Z" fill="white"/>
<path d="M4.54406 41.4799C5.87848 36.4091 7.86342 31.8554 10.4989 27.8188C12.5672 24.6496 15.553 21.1301 19.4561 17.2603C16.0867 17.3937 12.5506 18.211 8.84755 19.7122C5.41143 21.1467 3.37645 22.4812 2.7426 23.7155C2.34227 24.4828 2.34227 27.0348 2.7426 31.3717C3.14292 35.8753 3.74341 39.2447 4.54406 41.4799Z" fill="#005E96"/>
<path d="M37.2706 92.171C32.9671 90.7365 29.3141 91.6039 26.3117 94.7731L23.5094 93.3219C19.3394 94.3227 17.4545 96.8915 17.8548 101.028C18.2218 105.065 20.2901 108.101 24.0599 110.136C25.7279 111.003 27.4626 111.453 29.2641 111.487C26.6953 114.689 24.6937 118.492 23.2592 122.896C21.9248 127.133 21.2242 131.536 21.1575 136.107C21.0908 140.31 21.5912 144.28 22.6587 148.016C23.7263 151.953 25.3276 155.322 27.4626 158.124C32.1664 164.396 40.4398 167.966 52.2827 168.833C63.6253 169.667 73.0162 167.849 80.4556 163.379C86.2603 159.843 90.4137 155.189 92.9157 149.417C95.4177 143.613 96.0516 137.091 94.8172 129.852C90.5471 128.15 86.9942 125.832 84.1586 122.896C83.5247 122.229 83.041 120.878 82.7074 118.843C82.3405 116.574 82.3571 114.456 82.7575 112.487C83.9918 106.95 87.7448 104.965 94.0166 106.533C96.3185 103.664 97.3193 100.761 97.019 97.8256C96.7521 95.09 95.5011 92.9216 93.266 91.3203C90.9307 89.6523 88.1785 89.1018 85.0093 89.669C81.5064 90.2695 78.1704 92.2377 75.0012 95.5738C69.8637 90.8032 64.7428 89.1018 59.6387 90.4696C54.4678 91.8374 52.0993 95.6572 52.533 101.929L44.0261 101.028C43.8926 96.5912 41.6408 93.6389 37.2706 92.171Z" fill="#60C0BD"/>
<path d="M24.0599 110.136C17.7214 113.705 12.5839 118.309 8.64738 123.947C5.07782 129.084 4.01029 132.537 5.44478 134.305C6.44559 135.54 8.7975 136.307 12.5005 136.607L21.1575 136.107C21.2242 131.536 21.9248 127.133 23.2592 122.896C24.6937 118.493 26.6953 114.689 29.2641 111.487C27.4626 111.453 25.7279 111.003 24.0599 110.136Z" fill="white"/>
<path d="M90.0134 105.932C86.2103 105.832 83.775 108.217 82.7074 113.088C81.74 117.625 82.2237 120.894 84.1586 122.896C88.9291 127.833 95.5345 130.869 103.975 132.003C107.444 132.47 110.447 132.454 112.982 131.953C115.584 131.453 117.152 130.552 117.686 129.251C118.353 127.65 117.853 125.515 116.185 122.846C114.65 120.377 112.381 117.842 109.379 115.24C102.407 109.202 95.9515 106.099 90.0134 105.932Z" fill="white"/>
<path d="M69.0464 167.932C68.9463 169.9 69.2632 172.469 69.9972 175.638C70.8312 179.241 71.7986 181.426 72.8995 182.194C75.168 183.828 79.288 184.496 85.2595 184.195C91.5313 183.862 95.4344 182.461 96.969 179.992C97.9031 178.491 96.8523 175.672 93.8165 171.535C90.9141 167.532 87.478 164.046 83.5081 161.077C83.1078 161.911 81.1062 163.212 77.5032 164.98C73.7335 166.848 70.9146 167.832 69.0464 167.932Z" fill="#005E96"/>
<path d="M113.683 142.462L94.7172 144.464C94.7172 145.464 94.0667 147.316 92.7656 150.018C91.598 152.42 90.6806 154.038 90.0134 154.872C94.9174 157.374 102.69 160.076 113.332 162.979C124.241 165.948 132.898 167.649 139.303 168.083C141.272 168.216 142.823 167.682 143.957 166.481C145.225 165.147 145.492 163.462 144.758 161.427C144.057 159.459 141.939 156.24 138.403 151.769C134.733 147.099 131.847 144.08 129.746 142.712C128.445 141.878 123.09 141.795 113.683 142.462Z" fill="#005E96"/>
<path d="M46.428 168.033C42.4915 167.666 37.1872 165.597 30.5151 161.828C28.1465 163.195 25.3943 165.431 22.2584 168.533C18.7556 172.003 16.5705 174.888 15.7031 177.19C14.8024 179.525 17.5046 181.327 23.8097 182.594C29.1474 183.695 33.1673 184.029 35.8695 183.595C38.0379 183.228 40.223 181.343 42.4248 177.941C44.4264 174.771 45.7608 171.469 46.428 168.033Z" fill="#005E96"/>
<path d="M61.0399 49.9868C61.0065 47.0177 59.5387 44.4823 56.6363 42.3806C53.734 40.2789 50.2311 39.2448 46.1278 39.2781C41.9578 39.3448 38.4883 40.4958 35.7194 42.7309C33.0505 44.8994 31.7161 47.4848 31.7161 50.4872C31.7161 53.4229 33.0839 55.8416 35.8195 57.7431C38.5884 59.678 42.0245 60.6454 46.1278 60.6454C50.3312 60.6454 53.8507 59.6613 56.6864 57.6931C59.6221 55.6914 61.0733 53.1227 61.0399 49.9868Z" fill="#865B15"/>
<path d="M55.1851 147.716C55.3853 146.715 54.5179 145.114 52.583 142.912C63.1583 139.543 68.3959 136.574 68.2958 134.005C68.129 130.635 66.2441 127.516 62.6412 124.647C58.5712 121.411 53.5672 119.727 47.629 119.593C42.1579 119.46 37.4207 121.078 33.4175 124.447C29.6811 127.616 27.913 131.052 28.1132 134.755C28.1799 135.89 30.1482 137.391 34.018 139.259C38.5216 141.427 41.057 142.829 41.6241 143.462C40.1896 145.631 39.5558 146.965 39.7226 147.466C40.1229 148.7 42.7584 149.301 47.629 149.267C52.4663 149.267 54.985 148.75 55.1851 147.716Z" fill="#FBD375"/>
<path d="M95.3177 16.2096C94.6838 21.4138 96.135 27.1351 99.6712 33.3735C103.074 39.345 106.66 42.9479 110.43 44.1822C112.198 43.6485 113.833 40.8128 115.334 35.6753C116.768 30.6046 117.119 26.8348 116.385 24.3662C115.718 22.131 113.449 20.046 109.579 18.1111C105.009 15.8426 100.255 15.2087 95.3177 16.2096Z" fill="#005E96"/>
<path d="M56.1859 91.07L29.7145 90.0191C21.0741 88.7181 14.9692 86.4329 11.3996 83.1636C13.3012 85.5989 15.2194 87.5838 17.1543 89.1184C19.0892 90.5863 22.1417 92.4711 26.3117 94.773C29.3141 91.6037 32.9671 90.7364 37.2706 92.1709C41.6408 93.6387 43.8926 96.5911 44.0261 101.028L52.533 101.929C52.0993 95.657 54.4679 91.8373 59.6387 90.4695C64.7429 89.1017 69.8637 90.8031 75.0012 95.5736C78.1704 92.2376 81.5065 90.2693 85.0093 89.6688C88.1785 89.1017 90.9308 89.6522 93.266 91.3202C96.8356 88.9182 99.4377 86.8165 101.072 85.0151C98.0032 85.9492 93.5496 86.8833 87.7115 87.8173L67.4451 90.3194L64.5928 89.9191L61.6904 89.5187C61.0565 89.5521 60.1391 89.819 58.9382 90.3194L56.1859 91.07Z" fill="#DBDCDC"/>
<path d="M9.44803 29.5202C6.44559 29.0531 4.12705 27.9022 2.49239 26.0674C2.45903 28.2692 2.62583 30.888 2.9928 33.9238C3.42648 37.2598 3.94357 39.7785 4.54406 41.4799C5.71167 37.0763 7.34632 33.0897 9.44803 29.5202Z" fill="#004C7E"/>
<path d="M93.3661 148.317C89.3295 152.086 83.9084 154.855 77.1029 156.623C70.7644 158.291 63.9422 158.892 56.6363 158.425C49.4305 157.991 42.7751 156.607 36.6701 154.271C30.2649 151.803 25.3443 148.6 21.9082 144.664C22.8422 150.001 24.6937 154.488 27.4626 158.124C32.1665 164.396 40.4398 167.966 52.2828 168.833C63.6253 169.667 73.0163 167.849 80.4556 163.379C86.5939 159.642 90.8974 154.622 93.3661 148.317Z" fill="#52A7A5"/>
<path d="M21.1575 136.106C21.1909 133.137 21.5245 130.135 22.1584 127.099C16.8874 130.702 11.2995 133.071 5.39476 134.205L5.4448 134.305C6.44561 135.539 8.79752 136.307 12.5005 136.607L21.1575 136.106Z" fill="#DBDCDC"/>
<path d="M96.8689 127.349C89.8632 124.447 85.026 120.01 82.3571 114.039C81.0895 117.441 81.6899 120.394 84.1586 122.896C88.2619 127.166 93.9165 130.035 101.122 131.503C107.628 132.871 112.532 132.704 115.834 131.002C108.428 130.702 102.106 129.484 96.8689 127.349Z" fill="#DBDCDC"/>
<path d="M70.0472 175.789C72.6493 173.186 75.5683 171.068 78.8043 169.433C82.1403 167.765 85.6432 166.698 89.3128 166.231C87.5781 164.396 85.6432 162.678 83.5081 161.077C83.1078 161.911 81.1061 163.212 77.5032 164.98C73.7335 166.848 70.9146 167.832 69.0464 167.932C68.9129 169.867 69.2465 172.486 70.0472 175.789Z" fill="#004C7E"/>
<path d="M119.587 165.03C134.7 168.933 142.99 169.4 144.458 166.431C138.152 166.331 129.162 164.446 117.486 160.776C106.343 157.274 98.17 153.921 92.9658 150.718C92.9658 151.619 92.6155 152.42 91.9149 153.12L90.0134 154.872C96.4853 158.208 106.343 161.594 119.587 165.03Z" fill="#004C7E"/>
<path d="M27.0623 164.28C30.2983 165.314 33.3341 166.865 36.1697 168.933C38.972 170.968 41.4073 173.354 43.4756 176.089C44.9101 173.42 45.8943 170.735 46.428 168.033C42.4915 167.666 37.1872 165.597 30.5151 161.828L27.0623 164.28Z" fill="#004C7E"/>
<path d="M58.8881 55.2411C54.3845 57.5096 49.4638 58.377 44.1262 57.8432C39.1555 57.3762 35.1522 55.8583 32.1164 53.2896C32.7503 55.925 34.5184 57.91 37.4207 59.2444C40.2897 60.6122 43.6591 61.0458 47.5289 60.5454C49.9309 60.2118 52.2661 59.5279 54.5346 58.4938C56.7697 57.4262 58.2209 56.342 58.8881 55.2411Z" fill="#6A4504"/>
<path d="M55.1851 147.716C55.3853 146.715 54.5179 145.114 52.583 142.912C63.1583 139.543 68.3959 136.574 68.2958 134.005C68.129 130.635 66.2441 127.516 62.6412 124.647C58.5712 121.411 53.5672 119.727 47.629 119.593C42.1579 119.46 37.4207 121.078 33.4175 124.447C29.6811 127.616 27.913 131.052 28.1132 134.755C28.1799 135.89 30.1482 137.391 34.018 139.259C38.5216 141.427 41.057 142.829 41.6241 143.462C40.1896 145.631 39.5558 146.965 39.7226 147.466C40.1229 148.7 42.7584 149.301 47.629 149.267C52.4663 149.267 54.985 148.75 55.1851 147.716Z" fill="#FBD375"/>
<path d="M97.6196 29.1196C99.1208 32.7559 101.072 35.9919 103.474 38.8275C105.876 41.6965 108.195 43.4813 110.43 44.1818C111.631 43.8149 112.832 42.1969 114.033 39.3279C115.134 36.6924 115.918 33.8568 116.385 30.821C108.845 32.7559 102.59 32.1888 97.6196 29.1196Z" fill="#004C7E"/>
<path d="M111.831 42.731L109.779 44.1821C110.413 47.5515 110.73 50.8542 110.73 54.0902C110.73 62.1967 109.279 69.2191 106.377 75.1572C103.474 81.0954 99.054 86.0661 93.1159 90.0693L94.517 91.5706C100.855 87.2671 105.543 82.263 108.578 76.5584C111.748 70.5535 113.332 63.4311 113.332 55.1911C113.332 51.3546 112.832 47.2012 111.831 42.731Z" fill="#0D131A"/>
<path d="M7.24622 36.5258C9.84834 30.2541 13.518 24.5995 18.2551 19.5621C28.8971 8.21956 41.7742 2.5483 56.8865 2.5483C64.0923 2.5483 70.9646 3.81599 77.5032 6.35138C83.8083 8.78669 89.4128 12.2395 94.3168 16.7098L96.1183 15.0084C91.0809 10.438 85.1761 6.91851 78.4039 4.44984C71.6318 2.01453 64.4593 0.796875 56.8865 0.796875C41.0737 0.796875 27.6127 6.45146 16.5037 17.7606C5.89513 28.536 0.507431 41.0128 0.34063 55.191C0.207191 64.265 2.42565 72.3716 6.99603 79.5107C11.3996 86.483 17.5713 91.8707 25.511 95.6738L26.3617 94.1225C19.0224 90.1193 13.3512 84.7316 9.34794 77.9594C5.31133 71.1873 3.29302 63.6312 3.29302 55.2911C3.29302 49.0527 4.61076 42.7976 7.24622 36.5258Z" fill="#0D131A"/>
<path d="M105.476 39.5281C102.974 36.7592 101.006 33.9569 99.5711 31.1213C98.4035 28.8194 97.4194 25.9838 96.6187 22.6144C95.7847 19.245 95.6179 17.3768 96.1183 17.0099C97.4861 16.0424 100.805 16.4094 106.076 18.1108C111.648 19.8789 114.817 22.0473 115.584 24.616C116.151 26.5509 115.851 29.937 114.683 34.7743C113.449 39.8117 112.031 42.614 110.43 43.1811C109.596 43.448 107.945 42.2303 105.476 39.5281ZM94.4169 15.2084C93.7497 15.6755 93.5996 17.4602 93.9666 20.5628C94.4003 24.3658 95.6679 28.3357 97.7696 32.4724C99.3376 35.6083 101.473 38.5607 104.175 41.3296C106.977 44.2319 109.162 45.583 110.73 45.3829C112.732 45.1494 114.55 42.3137 116.185 36.876C117.819 31.4716 118.17 27.2181 117.235 24.1156C116.168 20.4126 112.331 17.6938 105.726 15.959C99.8213 14.3577 96.0516 14.1075 94.4169 15.2084Z" fill="#0D131A"/>
<path d="M17.6047 18.2612L19.0558 17.1103C19.723 16.343 19.9232 15.976 19.6563 16.0094C15.8199 16.1429 12.0168 17.0603 8.24706 18.7616C4.77758 20.2962 2.67587 21.8141 1.94194 23.3153C1.34146 24.5497 1.19134 27.3686 1.49158 31.7722C1.85855 36.2758 2.52575 39.8788 3.49321 42.581C3.55993 42.8145 3.81013 42.3808 4.24381 41.2799C4.6775 40.179 4.86098 39.4451 4.79426 39.0781C3.99361 35.6086 3.47652 32.5228 3.243 29.8206C3.00948 27.0517 3.10956 25.1502 3.54325 24.116C4.11038 22.9817 5.72834 21.8308 8.39717 20.6632C11.1994 19.4622 14.2686 18.6616 17.6047 18.2612Z" fill="#0D131A"/>
<path d="M25.411 97.5751C27.6461 93.5051 31.0322 91.8872 35.5692 92.7212C40.0395 93.5552 42.5415 96.0405 43.0753 100.177C43.1754 100.878 43.3422 101.345 43.5757 101.578C43.7759 101.812 44.2096 101.979 44.8768 102.079L51.8324 102.829L53.1835 102.479C53.3837 102.246 53.4671 101.812 53.4337 101.178C53.3003 99.1431 53.6506 97.3583 54.4846 95.8237C55.2852 94.2891 56.5029 93.1048 58.1375 92.2708C60.5061 91.1032 63.1583 90.8697 66.094 91.5702C69.0631 92.3042 71.832 93.8554 74.4007 96.224L75.0012 96.4742C75.2347 96.4409 75.4349 96.3408 75.6017 96.174C78.7376 92.9047 82.0569 91.0365 85.5598 90.5694C88.7624 90.1357 91.3978 90.8697 93.4662 92.7712C95.0675 94.2391 95.9015 96.0405 95.9682 98.1756C96.0349 100.611 95.0341 103.013 92.9658 105.381C92.799 105.548 92.9491 105.798 93.4161 106.132L94.3669 106.332C96.8689 103.663 98.0866 100.811 98.0199 97.7753C97.9531 95.0064 96.9523 92.7545 95.0174 91.0198C92.6822 88.9181 89.6798 88.1008 86.0101 88.5678C82.0736 89.0682 78.3873 91.0198 74.9512 94.4226C72.0488 91.7204 68.9963 89.9856 65.7937 89.2183C62.6579 88.451 59.7722 88.7179 57.1367 90.019C55.2685 90.9531 53.8507 92.4543 52.8833 94.5226C51.9492 96.4575 51.5322 98.626 51.6322 101.028L44.8768 100.277C44.6766 97.8086 43.7592 95.6736 42.1245 93.8721C40.59 92.2041 38.7051 91.1032 36.47 90.5694C31.199 89.3017 27.2291 91.2366 24.5603 96.3741C24.0933 97.2415 23.9932 97.8754 24.2601 98.2757C24.5269 98.676 24.9106 98.4425 25.411 97.5751Z" fill="#0D131A"/>
<path d="M23.9598 94.5728C24.1933 94.5394 24.0766 94.2725 23.6095 93.7721C23.1425 93.2383 22.7922 92.9881 22.5587 93.0215C20.3235 93.2884 18.7056 94.3559 17.7048 96.2241C16.804 97.9588 16.6039 99.9938 17.1043 102.329C17.638 104.731 18.7723 106.816 20.507 108.584C22.4753 110.552 24.8772 111.753 27.7129 112.187C25.044 115.39 22.9924 119.36 21.5579 124.097C20.1901 128.6 19.5229 133.304 19.5563 138.208C19.5896 148.85 22.9257 156.823 29.5644 162.128C35.8361 167.165 44.9602 169.7 56.9366 169.734C69.4133 169.767 79.2213 166.831 86.3604 160.927C93.2327 155.222 96.5854 147.666 96.4186 138.258C96.3518 135.689 96.0516 132.954 95.5178 130.052C95.4511 129.818 95.1175 129.685 94.517 129.651C93.8832 129.618 93.5996 129.718 93.6663 129.951C94.2001 132.72 94.467 135.206 94.467 137.407C94.5004 146.548 91.0976 153.938 84.2587 159.575C77.2864 165.28 68.0456 168.099 56.5362 168.032C33.3174 167.932 21.8248 157.34 22.0583 136.257C22.0916 131.753 22.7755 127.416 24.1099 123.246C25.4777 118.876 27.4293 115.139 29.9647 112.037C30.3317 111.603 30.4317 111.253 30.2649 110.986C30.0981 110.753 29.7812 110.636 29.3142 110.636C26.7788 110.569 24.6104 109.735 22.8089 108.134C21.1742 106.733 20.0733 104.965 19.5062 102.829C18.9391 100.794 19.0225 98.993 19.7564 97.4251C20.5571 95.7237 21.9582 94.7729 23.9598 94.5728Z" fill="#0D131A"/>
<path d="M84.4088 110.786C85.5764 108.084 87.4279 106.766 89.9633 106.833C94.4336 106.967 99.2875 108.868 104.525 112.538C109.062 115.74 112.565 119.226 115.034 122.996C116.802 125.665 117.419 127.633 116.885 128.901C116.418 130.102 114.917 130.936 112.381 131.403C108.312 132.204 103.674 131.82 98.4702 130.252C92.8323 128.517 88.2786 125.865 84.8091 122.296C83.9084 121.362 83.3913 119.744 83.2579 117.442C83.1244 114.973 83.5081 112.755 84.4088 110.786ZM90.0133 105.082C85.8433 104.948 83.0744 107.484 81.7066 112.688C80.4055 117.792 81.1895 121.678 84.0585 124.347C87.7281 127.817 92.3986 130.386 98.0699 132.054C102.874 133.421 107.377 133.772 111.581 133.104C115.417 132.504 117.686 131.37 118.386 129.702C119.12 127.934 118.52 125.498 116.585 122.396C114.483 118.993 111.281 115.64 106.977 112.338C100.839 107.634 95.1842 105.215 90.0133 105.082Z" fill="#0D131A"/>
<path d="M24.3601 110.236C23.8597 109.735 23.5095 109.552 23.3093 109.685C16.3036 113.755 10.9993 118.676 7.39638 124.447C4.2605 129.451 3.39314 132.921 4.79428 134.856C5.92853 136.49 8.49728 137.408 12.5005 137.608C15.9033 137.775 18.7389 137.491 21.0074 136.757C21.2409 136.69 21.3077 136.34 21.2076 135.706C21.1075 135.072 20.9407 134.789 20.7072 134.856C18.5721 135.556 15.8866 135.823 12.6506 135.656C9.21452 135.489 7.0461 134.856 6.14536 133.755C5.04447 132.42 6.02862 129.451 9.09777 124.847C12.7341 119.376 17.9549 114.823 24.7605 111.186C24.994 111.053 24.8605 110.736 24.3601 110.236Z" fill="#0D131A"/>
<path d="M84.0585 160.376C83.8584 160.243 83.5748 160.409 83.2078 160.876C82.8742 161.343 82.8075 161.644 83.0077 161.777C86.8775 164.68 90.2469 168.116 93.1159 172.086C95.9181 175.922 96.9523 178.407 96.2184 179.542C94.9173 181.643 91.3311 182.894 85.4597 183.295C79.6883 183.695 75.6684 183.094 73.3999 181.493C72.4991 180.859 71.6485 178.858 70.8478 175.488C70.1139 172.352 69.797 169.85 69.897 167.982C69.9304 167.749 69.6135 167.682 68.9463 167.782C68.3124 167.915 67.9788 168.099 67.9455 168.332C67.8787 170.234 68.2457 172.769 69.0463 175.939C70.0138 179.675 71.1314 181.994 72.3991 182.894C74.8344 184.662 79.2713 185.396 85.7099 185.096C92.482 184.762 96.6854 183.278 98.3201 180.642C99.4877 178.774 98.3201 175.555 94.8172 170.985C91.7147 166.948 88.1285 163.412 84.0585 160.376Z" fill="#0D131A"/>
<path d="M94.3669 143.763C94.2001 143.796 94.1 144.08 94.0667 144.613C94.0667 145.181 94.1834 145.447 94.4169 145.414L114.383 143.312C123.224 142.712 128.178 142.762 129.245 143.463C131.314 144.797 134.166 147.766 137.802 152.37C141.272 156.773 143.323 159.893 143.957 161.727C144.558 163.329 144.424 164.663 143.557 165.731C142.689 166.831 141.305 167.315 139.403 167.182C132.898 166.748 124.191 165.047 113.282 162.078C102.774 159.209 95.1509 156.54 90.4137 154.071C90.1802 153.971 89.93 154.188 89.6631 154.722C89.3962 155.222 89.3795 155.539 89.613 155.672C94.4837 158.174 102.34 160.943 113.182 163.979C124.558 167.115 133.515 168.916 140.054 169.384C142.489 169.55 144.241 168.766 145.308 167.032C146.342 165.364 146.442 163.395 145.608 161.127C144.841 158.958 142.723 155.556 139.253 150.919C135.617 146.048 132.765 142.929 130.696 141.561C128.928 140.393 123.19 140.26 113.482 141.161C105.676 141.895 99.3042 142.762 94.3669 143.763Z" fill="#0D131A"/>
<path d="M30.9655 162.578C31.199 162.445 31.1656 162.128 30.8654 161.627C30.5652 161.127 30.2983 160.943 30.0648 161.077C27.3626 162.645 24.5436 164.78 21.6079 167.482C17.9049 170.885 15.5697 173.921 14.6022 176.589C13.6014 179.358 16.337 181.643 22.8089 183.445C28.4801 185.013 32.9671 185.53 36.2698 184.996C38.7718 184.596 41.1404 182.444 43.3755 178.541C45.3104 175.238 46.6115 171.785 47.2787 168.183C47.3121 167.949 47.0452 167.782 46.4781 167.682C45.8776 167.582 45.5607 167.649 45.5273 167.882C44.8934 171.218 43.6257 174.388 41.7242 177.39C39.6892 180.626 37.6876 182.394 35.7193 182.694C32.5501 183.195 28.4635 182.861 23.4594 181.694C18.2218 180.426 15.9033 179.025 16.5038 177.49C17.3378 175.288 19.4895 172.486 22.959 169.083C26.0615 166.048 28.7303 163.879 30.9655 162.578Z" fill="#0D131A"/>
<path d="M88.0618 174.087C86.9943 173.053 86.1936 172.486 85.6599 172.386C85.0927 172.286 85.3096 172.77 86.3104 173.837C87.2778 174.871 88.262 176.539 89.2628 178.841C90.1302 180.909 90.5638 182.311 90.5638 183.045C90.5638 183.311 90.8641 183.445 91.4646 183.445C92.0651 183.445 92.3653 183.311 92.3653 183.045C92.3653 182.077 91.8983 180.593 90.9642 178.591C89.9967 176.489 89.0293 174.988 88.0618 174.087Z" fill="#0D131A"/>
<path d="M80.0553 175.488C79.188 174.721 78.5875 174.337 78.2539 174.337C77.9203 174.337 78.1371 174.788 78.9044 175.689C79.5049 176.422 80.1721 177.723 80.906 179.592C81.7067 181.593 82.107 183.095 82.107 184.095C82.107 184.362 82.4072 184.496 83.0077 184.496C83.6082 184.496 83.9084 184.362 83.9084 184.095C83.9084 182.861 83.4914 181.31 82.6574 179.442C81.7901 177.54 80.9227 176.222 80.0553 175.488Z" fill="#0D131A"/>
<path d="M34.9187 176.089C35.6192 175.121 35.6026 174.804 34.8686 175.138C34.1681 175.472 33.4508 176.022 32.7169 176.789L30.0147 180.192L28.0131 183.245C27.913 183.478 28.1298 183.712 28.6636 183.945C29.1974 184.179 29.5143 184.179 29.6144 183.945L31.8162 180.442L34.9187 176.089Z" fill="#0D131A"/>
<path d="M26.4118 173.587C27.5127 172.686 27.7462 172.269 27.1124 172.336C26.4785 172.403 25.6612 172.886 24.6604 173.787L21.1075 177.29C19.5062 179.025 18.5721 180.192 18.3052 180.793C18.2385 181.026 18.472 181.26 19.0058 181.493C19.5396 181.727 19.8565 181.727 19.9566 181.493C20.1567 180.96 21.0908 179.659 22.7589 177.59C24.4936 175.455 25.7112 174.121 26.4118 173.587Z" fill="#0D131A"/>
<path d="M36.52 43.2312C39.1554 41.2629 42.3747 40.2454 46.1778 40.1787C49.9809 40.1454 53.2836 41.1295 56.0858 43.1311C58.788 45.0994 60.1391 47.3846 60.1391 49.9867C60.1725 52.789 58.788 55.1242 55.9858 56.9924C53.2502 58.8272 49.9642 59.7446 46.1278 59.7446C42.2913 59.7446 39.072 58.8605 36.4699 57.0924C33.9012 55.3243 32.6168 53.1226 32.6168 50.4871C32.6168 47.6515 33.9179 45.2328 36.52 43.2312ZM61.9406 49.9366C61.8739 46.5672 60.3393 43.7816 57.3369 41.5799C54.3678 39.4114 50.6314 38.3606 46.1278 38.4273C41.8576 38.494 38.2047 39.7117 35.1689 42.0803C32.1664 44.4489 30.6652 47.3012 30.6652 50.6372C30.6652 53.8064 32.1331 56.4086 35.0688 58.4435C38.0045 60.4785 41.6908 61.496 46.1278 61.496C50.5981 61.496 54.3011 60.5452 57.2368 58.6437C60.4394 56.5086 62.0073 53.6063 61.9406 49.9366Z" fill="#0D131A"/>
<path d="M44.6766 66.4502C43.0419 66.4502 39.9561 71.154 35.4191 80.5616C34.8519 81.7626 34.7352 82.4465 35.0688 82.6133C35.4024 82.7801 35.8861 82.263 36.52 81.062C38.3881 77.4591 40.1396 74.4233 41.7742 71.9547C43.3088 69.6528 44.2763 68.5019 44.6766 68.5019C45.7775 68.5019 48.6631 70.0198 53.3336 73.0555C58.1375 76.1581 61.7905 78.9103 64.2925 81.3122C65.4601 82.4465 66.1773 82.8635 66.4442 82.5633C66.7111 82.263 66.3108 81.4957 65.2432 80.2614C62.8413 77.4925 58.9548 74.4233 53.5838 71.0539C48.7465 67.9848 45.7775 66.4502 44.6766 66.4502Z" fill="#0D131A"/>
<path d="M90.5138 66.6002C90.5138 66.2999 90.4137 66.0497 90.2136 65.8496C90.0134 65.6494 89.7632 65.5493 89.4629 65.5493C89.1961 65.5493 88.9625 65.6494 88.7624 65.8496L88.4621 66.6002C88.4288 66.8671 88.5289 67.1006 88.7624 67.3007L89.4629 67.601C89.7298 67.5676 89.9633 67.4675 90.1635 67.3007C90.397 67.1006 90.5138 66.8671 90.5138 66.6002Z" fill="#0D131A"/>
<path d="M74.6509 66.6004C74.4174 66.567 74.2172 66.6505 74.0504 66.8506L73.8002 67.6012L74.0504 68.1517L74.6509 68.4519L75.3515 68.1517L75.6517 67.5011C75.6517 67.0007 75.3181 66.7005 74.6509 66.6004Z" fill="#0D131A"/>
<path d="M81.3063 75.9077C81.0728 75.9077 80.8726 75.9911 80.7058 76.1579L80.4056 76.7584C80.4056 77.3255 80.6724 77.6591 81.2062 77.7592L81.9068 77.509C82.1069 77.2755 82.1903 77.042 82.157 76.8084C82.157 76.5749 82.0736 76.3748 81.9068 76.208C81.74 76.0078 81.5398 75.9077 81.3063 75.9077Z" fill="#0D131A"/>
<path d="M12.0001 65.1992C11.7332 65.1992 11.5164 65.2826 11.3496 65.4494L11.0493 66.15L11.2995 66.7004L11.9501 67.0007L12.6506 66.7505C12.8508 66.5503 12.9509 66.3502 12.9509 66.15C12.9509 65.8831 12.8508 65.6496 12.6506 65.4494C12.4838 65.2826 12.267 65.1992 12.0001 65.1992Z" fill="#0D131A"/>
<path d="M18.7556 75.2573L18.005 75.5075L17.7047 76.2081C17.7047 76.8086 18.0217 77.1422 18.6555 77.2089C18.9224 77.2756 19.1726 77.1922 19.4061 76.9587C19.6396 76.7252 19.7397 76.475 19.7064 76.2081L19.4061 75.5576C19.206 75.3574 18.9891 75.2573 18.7556 75.2573Z" fill="#0D131A"/>
<path d="M24.8105 65.2993L24.0599 65.5996C23.8264 65.8331 23.7096 66.1 23.7096 66.4002L24.0098 67.1008L24.6604 67.401L25.461 67.1008L25.7613 66.4503C25.7613 66.15 25.6612 65.8831 25.461 65.6496C25.2609 65.4161 25.044 65.2993 24.8105 65.2993Z" fill="#0D131A"/>
<path d="M51.9325 143.513C53.5338 145.381 54.3344 146.665 54.3344 147.366V147.416C53.9007 147.816 52.5163 148.1 50.1811 148.267C47.679 148.467 45.4105 148.417 43.3755 148.116C41.841 147.883 40.9069 147.599 40.5733 147.266L41.1738 145.915L42.3747 144.013C42.6416 143.579 42.6083 143.196 42.2747 142.862C41.474 142.028 39.4057 140.827 36.0696 139.259C31.3992 137.091 29.0306 135.573 28.9639 134.706C28.7971 131.67 30.2816 128.651 33.4175 125.648C37.1538 122.045 41.891 120.311 47.629 120.444C53.3336 120.577 58.1375 122.212 62.0407 125.348C65.4768 128.05 67.2616 130.936 67.395 134.005C67.4284 134.806 66.5944 135.756 64.893 136.857C62.3576 138.459 58.1542 140.193 52.2828 142.061C51.8491 142.195 51.5822 142.362 51.4821 142.562L51.9325 143.513ZM69.0964 135.756C69.5301 135.022 69.6635 134.138 69.4967 133.104C68.9963 129.668 66.8613 126.549 63.0915 123.747C58.8214 120.511 53.6672 118.826 47.629 118.693C41.9911 118.559 37.1038 120.21 32.9671 123.647C29.1307 126.816 27.2124 130.369 27.2124 134.305C27.2124 135.306 27.5961 136.173 28.3634 136.907C28.8971 137.408 31.0822 138.542 34.9187 140.31C38.8552 142.145 40.9569 143.162 41.2238 143.363L39.3723 145.815C38.6717 146.782 38.3548 147.382 38.4215 147.616C39.022 149.384 42.0578 150.218 47.5289 150.118C52.9667 150.051 55.8356 149.234 56.1359 147.666C56.2026 147.299 55.9691 146.732 55.4353 145.965L53.2836 143.262C57.9207 141.728 61.4068 140.427 63.7421 139.359C66.611 138.092 68.3958 136.891 69.0964 135.756Z" fill="#0D131A"/>
<path d="M57.7873 121.895C57.9207 121.761 57.8039 121.611 57.437 121.445L56.6864 121.395C55.2519 123.296 54.1176 126.665 53.2836 131.503C52.483 136.273 52.3996 139.976 53.0334 142.612C53.0668 142.812 53.2836 142.879 53.6839 142.812C54.0509 142.745 54.2177 142.612 54.1843 142.412C53.784 139.943 54.0009 136.273 54.8349 131.403C55.7022 126.499 56.6864 123.329 57.7873 121.895Z" fill="#0D131A"/>
<path d="M42.9252 120.494C43.0586 120.36 42.9585 120.21 42.6249 120.043L41.9244 119.943C39.3556 122.179 37.9878 126.098 37.821 131.703C37.721 137.107 38.7218 140.86 40.8235 142.962L41.424 142.862C41.6575 142.662 41.7075 142.478 41.5741 142.311C39.7393 140.343 38.9553 136.707 39.2222 131.403C39.5224 126.032 40.7567 122.395 42.9252 120.494Z" fill="#0D131A"/>
<path d="M87.111 48.8358C86.6439 45.6999 85.5931 43.1145 83.9584 41.0795C82.3238 39.0112 80.5223 38.0437 78.5541 38.1772C76.6525 38.3106 75.2013 39.7117 74.2005 42.3806C73.2331 44.9493 72.9996 47.835 73.5 51.0376C74.0004 54.2402 74.9678 56.7589 76.4023 58.5937C77.9369 60.5286 79.6716 61.3293 81.6065 60.9957C83.5081 60.6954 84.9926 59.4277 86.0601 57.1926C87.2278 54.7906 87.578 52.005 87.111 48.8358Z" fill="#0D131A"/>
<path d="M81.6566 42.931C81.6566 41.8968 81.3731 40.9961 80.8059 40.2288C80.2388 39.4282 79.5382 39.0278 78.7042 39.0278C77.8702 39.0278 77.153 39.3948 76.5525 40.1287C75.952 40.8293 75.6517 41.68 75.6517 42.6808C75.6517 43.715 75.952 44.5823 76.5525 45.2829C77.153 45.9835 77.8702 46.3338 78.7042 46.3338C79.5716 46.3338 80.2722 46.0168 80.8059 45.383C81.3731 44.7491 81.6566 43.9318 81.6566 42.931Z" fill="white"/>
<path d="M18.5554 39.5283C16.3537 39.3949 14.6856 40.5625 13.5514 43.0312C12.5839 45.1329 12.1002 47.9351 12.1002 51.438C12.1002 54.307 12.5506 56.6255 13.4513 58.3936C14.3854 60.2284 15.6364 61.1459 17.2043 61.1459C19.1392 61.1459 20.6905 60.2451 21.8581 58.4437C23.0257 56.7089 23.6929 54.3737 23.8597 51.438C24.0265 48.3355 23.6095 45.6166 22.6087 43.2814C21.5745 40.8794 20.2235 39.6284 18.5554 39.5283Z" fill="#0D131A"/>
<path d="M18.055 40.1787C17.3211 40.212 16.7039 40.6123 16.2035 41.3796C15.7365 42.1136 15.5196 42.9642 15.553 43.9317C15.5863 44.8658 15.8532 45.6498 16.3536 46.2836C16.854 46.8841 17.4879 47.1677 18.2552 47.1343C19.0225 47.1009 19.6563 46.7506 20.1567 46.0834C20.6571 45.3829 20.8906 44.5489 20.8573 43.5814C20.8239 42.614 20.5404 41.7966 20.0066 41.1294C19.4395 40.4622 18.7889 40.1453 18.055 40.1787Z" fill="white"/>
</g>
<defs>
<clipPath id="clip0_12_618">
<rect width="147" height="185" fill="white" transform="matrix(-1 0 0 1 147 0.796875)"/>
</clipPath>
</defs>
</svg>
