<svg width="101" height="100" viewBox="0 0 101 100" fill="none" xmlns="http://www.w3.org/2000/svg">
<g clip-path="url(#clip0_3_331)">
<path fill-rule="evenodd" clip-rule="evenodd" d="M0.333252 50C0.333252 43.4339 1.62654 36.9321 4.13927 30.8658C6.65201 24.7995 10.335 19.2876 14.9779 14.6447C19.6208 10.0017 25.1328 6.31876 31.1991 3.80602C37.2654 1.29329 43.7672 0 50.3333 0C56.8993 0 63.4011 1.29329 69.4674 3.80602C75.5337 6.31876 81.0457 10.0017 85.6886 14.6447C90.3315 19.2876 94.0145 24.7995 96.5272 30.8658C99.04 36.9321 100.333 43.4339 100.333 50C100.333 63.2608 95.0654 75.9785 85.6886 85.3553C76.3118 94.7321 63.5941 100 50.3333 100C37.0724 100 24.3547 94.7321 14.9779 85.3553C5.60109 75.9785 0.333252 63.2608 0.333252 50ZM11.8333 55.5556C13.1711 64.8123 17.7992 73.2771 24.8699 79.3993C31.9406 85.5216 40.9804 88.8914 50.3333 88.8914C59.6861 88.8914 68.7259 85.5216 75.7966 79.3993C82.8673 73.2771 87.4954 64.8123 88.8333 55.5556H66.0555C64.9077 58.8085 62.7791 61.6254 59.9633 63.6178C57.1474 65.6103 53.7828 66.6803 50.3333 66.6803C46.8837 66.6803 43.5191 65.6103 40.7032 63.6178C37.8874 61.6254 35.7588 58.8085 34.611 55.5556H11.8333ZM88.8333 44.4444C87.5039 35.1812 82.8792 26.7077 75.8075 20.5785C68.7359 14.4493 59.6914 11.0752 50.3333 11.0752C40.9751 11.0752 31.9306 14.4493 24.859 20.5785C17.7873 26.7077 13.1626 35.1812 11.8333 44.4444H34.611C35.7588 41.1915 37.8874 38.3746 40.7032 36.3822C43.5191 34.3897 46.8837 33.3197 50.3333 33.3197C53.7828 33.3197 57.1474 34.3897 59.9633 36.3822C62.7791 38.3746 64.9077 41.1915 66.0555 44.4444H88.8333ZM50.3333 55.5556C51.8067 55.5556 53.2197 54.9702 54.2616 53.9284C55.3035 52.8865 55.8888 51.4734 55.8888 50C55.8888 48.5266 55.3035 47.1135 54.2616 46.0716C53.2197 45.0298 51.8067 44.4444 50.3333 44.4444C48.8598 44.4444 47.4468 45.0298 46.4049 46.0716C45.363 47.1135 44.7777 48.5266 44.7777 50C44.7777 51.4734 45.363 52.8865 46.4049 53.9284C47.4468 54.9702 48.8598 55.5556 50.3333 55.5556Z" fill="#2D2D2D"/>
</g>
<defs>
<clipPath id="clip0_3_331">
<rect width="100" height="100" fill="white" transform="translate(0.333252)"/>
</clipPath>
</defs>
</svg>
