<svg width="671" height="691" viewBox="0 0 671 691" fill="none" xmlns="http://www.w3.org/2000/svg">
<path d="M585.923 432.898L664.718 522.821C668.906 527.488 670.701 530.599 670.102 532.154C669.385 533.71 665.974 533.291 659.872 530.898C639.53 522.642 586.102 498.65 499.59 458.924C408.889 417.163 353.667 392.095 333.923 383.719C331.41 382.642 330.273 381.445 330.513 380.129C330.752 378.932 332.128 377.736 334.641 376.539L385.615 352.847L454.897 320.18C422.949 304.266 381.427 284.701 330.333 261.488C329.615 269.385 326.684 278.24 321.538 288.052C317.111 296.428 312.325 303.428 307.179 309.052C318.786 317.189 324.231 328.377 323.513 342.616C322.795 356.257 317.051 367.146 306.282 375.283L312.743 416.026C315.376 435.291 316.932 449.351 317.41 458.206C317.649 462.753 317.231 465.325 316.154 465.924C314.838 466.642 312.325 465.026 308.615 461.078C296.53 448.274 279.778 427.573 258.359 398.975C243.162 401.847 230.299 398.317 219.769 388.385C209.837 379.052 205.709 368.462 207.384 356.616C197.453 357.932 185.427 356.736 171.308 353.026C156.829 349.317 145.102 344.172 136.128 337.59C132.538 347.402 120.154 376.12 98.9742 423.744C110.342 427.932 151.444 440.377 222.282 461.078C226.709 462.274 227.068 464.847 223.359 468.795L12.8204 683.103C7.43579 688.607 3.78622 690.941 1.87169 690.103C-0.0428449 689.266 0.0768132 685.736 2.23066 679.513C10.4871 654.624 23.7691 620.761 42.0768 577.924C61.4614 532.693 80.2478 492.189 98.4358 456.411L20.7178 457.129L11.564 456.052C10.4871 455.095 11.4443 452.701 14.4358 448.872C62.658 386.53 97.3589 342.556 118.538 316.949C101.906 295.77 96.2221 269.684 101.487 238.693C106.872 206.505 122.367 181.855 147.974 164.744C145.581 135.189 143.846 105.573 142.769 75.898C141.453 41.7955 141.632 19.8382 143.308 10.0263C144.504 3.80403 146.06 0.573263 147.974 0.333947C149.889 -0.0250275 152.94 2.48779 157.128 7.87241C175.555 31.9237 200.744 77.1545 232.692 143.565C258.299 141.65 280.795 148.65 300.179 164.565C320.641 181.197 331.59 203.154 333.026 230.436C358.513 238.095 394.291 249.402 440.359 264.36L553.795 301.513C556.547 302.471 558.102 303.488 558.461 304.565C558.701 305.642 557.803 306.958 555.769 308.513L507.308 342.616L585.923 432.898Z" fill="#65A9DC"/>
<path d="M326.744 230.795C326.863 232.71 327.94 234.026 329.974 234.744C361.085 243.479 434.017 267.291 548.769 306.18L502.641 340.462C501.325 341.3 501.504 342.795 503.179 344.949L569.41 421.411L656.821 523.539C628.222 511.214 574.615 487.103 496 451.206L340.026 379.949C359.41 370.496 399.795 351.411 461.179 322.693C462.376 322.095 462.795 321.257 462.436 320.18L460.103 317.667C399.316 287.753 355.821 266.932 329.615 255.206C327.222 254.248 325.846 255.146 325.487 257.898C324.171 266.274 321.419 275.009 317.231 284.103C313.043 293.197 308.017 301.274 302.154 308.334C300.838 309.77 301.316 311.385 303.59 313.18C313.162 320 317.47 329.693 316.513 342.257C315.556 353.864 310.829 363.496 302.333 371.154C301.137 372.231 300.658 373.906 300.897 376.18L306.462 409.565C309.453 427.992 311.368 443.787 312.205 456.949C305.026 449.291 296.829 439.778 287.615 428.411L261.59 395.565C260.752 394.488 259.197 393.949 256.923 393.949C241.726 395.265 229.94 391.257 221.564 381.924C214.385 373.787 211.692 365.052 213.487 355.718L213.128 352.847L209.538 352.129C197.453 352.847 184.65 351.171 171.128 347.103C157.726 343.154 146.359 337.77 137.026 330.949C134.752 329.394 133.137 329.872 132.179 332.385L116.564 370.257L93.2308 423.206C92.2735 425.479 92.9914 427.095 95.3846 428.052L146.359 444.206L217.615 466.283L9.58973 678.257C15.2137 658.513 30.1709 620.641 54.4615 564.641C77.5555 511.394 94.4273 475.137 105.077 455.872C106.752 452.881 105.496 451.385 101.308 451.385L19.4615 452.103C40.8803 423.744 75.7008 379.59 123.923 319.642C125 318.086 124.761 316.291 123.205 314.257C107.41 292.958 102.923 266.513 109.744 234.924C116.325 204.171 130.504 182.035 152.282 168.513C153.479 167.676 153.897 165.881 153.538 163.129L149.769 88.6415C148.214 50.4706 147.974 25.462 149.051 13.6159C149.291 11.1031 149.709 9.78682 150.308 9.66716C150.906 9.5475 151.983 10.5646 153.538 12.7184C171.368 38.5646 196.077 83.1372 227.667 146.436C228.265 147.872 229.701 148.471 231.974 148.231C251 146.317 269.607 151.283 287.795 163.129C311.009 178.206 323.991 200.761 326.744 230.795Z" fill="#BBE1E8"/>
<path d="M306.641 214.642C313.103 231.394 313.282 249.223 307.18 268.129C300.957 287.753 289.171 304.385 271.821 318.026C277.205 318.146 282.051 320.18 286.359 324.129C290.547 328.078 293.239 332.864 294.436 338.488C297.068 352.488 290.009 363.197 273.256 370.616C256.026 378.155 243.282 376.479 235.026 365.59C227.368 355.419 227.128 344.531 234.308 332.924C213.607 339.744 193.145 339.684 172.923 332.744C149.829 324.727 134.991 309.411 128.41 286.796C121.949 264.061 123.803 241.325 133.974 218.59C142.829 198.608 155.094 183.89 170.769 174.437C167.299 153.975 164.427 128.727 162.154 98.693C159.88 67.8212 159.821 52.2058 161.974 51.8468C164.248 51.4879 172.863 65.9665 187.821 95.2827C201.462 122.206 212.53 145.659 221.026 165.642C242.444 163.608 261.231 167.915 277.385 178.565C291.145 187.778 300.897 199.804 306.641 214.642Z" fill="#F19963"/>
<path d="M83.1795 427.334L92.8718 434.334L89.641 440.975L37.2308 440.078L81.2051 384.796C101.786 358.351 115.367 341.659 121.949 334.719L83.1795 427.334Z" fill="white"/>
<path d="M96.282 503.796L117.462 455.514C147.496 463.89 169.812 469.633 184.41 472.744L99.3333 561.591L75.641 547.052C81.3846 536.403 88.2649 521.984 96.282 503.796Z" fill="white"/>
<path d="M86.5897 574.872L63.0769 603.59L35.4359 635.719L50.5128 601.437L67.7436 564.283L76.8974 569.667L86.5897 574.872Z" fill="white"/>
<path d="M337.333 244.437C356.12 250.06 383.581 259.573 419.718 272.975L493.308 300.437C481.222 305.941 472.667 310.069 467.641 312.821C449.094 302.531 404.761 281.231 334.641 248.924L337.333 244.437Z" fill="white"/>
<path d="M496.538 317.129L505.872 327.36L482.718 343.155L545.179 414.59C529.385 426.317 517.538 434.693 509.641 439.719L454.538 408.308L387.59 372.59L444.128 343.514C466.385 332.146 483.855 323.351 496.538 317.129Z" fill="white"/>
<path d="M582.333 455.693L609.077 488.898C603.453 485.548 590.709 478.966 570.846 469.154C550.744 459.223 535.906 451.445 526.333 445.821L541.59 434.513L554.513 424.642L582.333 455.693Z" fill="white"/>
<path d="M131.82 225.231C144.624 235.642 154.615 247.308 161.795 260.231C169.812 274.83 170.949 286.078 165.205 293.975C162.453 297.684 156.65 297.684 147.795 293.975C139.778 290.744 133.137 286.377 127.872 280.872C126.077 271.419 125.419 262.146 125.897 253.052C126.376 242.402 128.35 233.129 131.82 225.231Z" fill="white"/>
<path d="M249.385 181.975C256.444 182.095 262.068 188.077 266.256 199.924C269.607 209.377 271.342 219.847 271.462 231.334C271.701 241.624 269.726 251.676 265.538 261.488C260.752 272.496 255.009 278.001 248.308 278.001C241.846 278.001 236.342 272.197 231.795 260.59C227.966 250.659 226.051 240.607 226.051 230.436C226.051 219.189 227.726 208.958 231.077 199.744C235.385 187.778 241.487 181.855 249.385 181.975Z" fill="white"/>
<path d="M128.051 238.154C136.188 244.496 143.667 252.633 150.487 262.565C158.265 273.812 160.538 281.471 157.308 285.539C156.111 287.214 152.103 285.599 145.282 280.693C137.744 275.308 131.162 268.607 125.538 260.59C125.299 255.086 126.137 247.607 128.051 238.154Z" fill="#007BBA"/>
<path d="M248.846 194.18C255.667 194.659 259.256 206.984 259.615 231.154C259.735 239.052 258.838 246.65 256.923 253.949C254.65 262.206 251.897 266.214 248.667 265.975C245.556 265.616 242.863 261.308 240.59 253.052C238.915 246.471 237.838 239.052 237.359 230.796C236.88 222.778 237.658 214.941 239.692 207.283C241.846 198.428 244.897 194.06 248.846 194.18Z" fill="#007BBA"/>
<path d="M308.615 262.924C303.47 285.3 291.205 303.667 271.821 318.026C285.462 321.736 293.06 328.855 294.615 339.385C296.291 350.873 288.932 361.402 272.538 370.975C260.094 378.274 248.906 377.676 238.974 369.18C228.803 360.445 227.009 348.539 233.59 333.462C211.812 338.488 192.786 338.548 176.513 333.642C156.65 327.539 142.35 314.257 133.615 293.796C146.299 305.163 162.094 311.984 181 314.257C199.427 316.411 217.795 314.018 236.103 307.078C255.128 299.779 270.863 288.65 283.308 273.693C297.068 257.18 305.145 237.856 307.538 215.719C312.085 230.197 312.444 245.932 308.615 262.924Z" fill="#D18456"/>
<path d="M178.487 208.719C176.453 212.189 173.761 214.582 170.41 215.898L161.077 215.36C158.325 213.804 156.709 211.232 156.231 207.642C155.752 204.052 156.53 200.522 158.564 197.052C160.479 193.582 163.171 191.189 166.641 189.873L175.974 190.411C178.726 192.086 180.342 194.719 180.82 198.308C181.299 201.898 180.521 205.368 178.487 208.719Z" fill="#F8CEB0"/>
<path d="M305.026 205.129C313.282 221.522 315.675 239.65 312.205 259.514C308.137 283.325 295.872 302.65 275.41 317.488C285.581 319.043 292.462 324.667 296.051 334.36C298.444 340.821 297.487 347.941 293.179 355.719C288.632 363.975 281.632 370.018 272.179 373.847C263.325 377.437 254.53 377.975 245.795 375.462C237.419 372.949 231.795 368.582 228.923 362.36C227.248 358.89 226.65 354.642 227.128 349.616C227.607 344.71 228.863 340.223 230.897 336.155C207.205 341.18 186.564 340.343 168.974 333.642C151.385 327.061 138.521 315.274 130.385 298.283C120.573 277.343 119.316 254.727 126.615 230.437C133.915 205.787 147.855 187.12 168.436 174.437C165.205 154.214 162.513 132.078 160.359 108.026C158.085 82.7785 157.308 65.1289 158.026 55.0776C158.265 51.0093 159.043 48.6759 160.359 48.0776C161.795 47.3597 163.65 48.6161 165.923 51.8469C172.265 60.8212 182.256 78.7699 195.897 105.693C208.94 131.42 217.915 150.625 222.821 163.308C238.137 161.394 252.915 163.548 267.154 169.77C284.145 177.069 296.769 188.855 305.026 205.129ZM304.667 265.975C310.051 245.274 308.197 225.949 299.103 208.001C291.564 193.163 280.137 182.095 264.82 174.796C250.462 167.855 235.744 165.642 220.667 168.155C219.47 168.394 218.692 168.035 218.333 167.078L194.82 116.821C185.248 97.0776 175.256 77.5734 164.846 58.3084L163.231 56.8725L162.513 58.6674C162.991 84.3939 166.761 123.043 173.82 174.616V174.796L172.744 176.77C153.12 188.496 139.778 206.505 132.718 230.796C125.897 254.368 127.094 275.907 136.308 295.411C144.205 312.163 156.171 323.531 172.205 329.513C188.359 335.736 208.342 336.334 232.154 331.308L236.282 331.488C236.88 332.206 236.641 333.642 235.564 335.796C231.256 344.531 230.718 352.488 233.949 359.667C236.342 364.813 240.949 368.343 247.769 370.257C254.829 372.291 262.188 371.753 269.846 368.642C277.983 365.291 284.145 360.206 288.333 353.385C292.282 346.804 293.299 340.821 291.385 335.437C289.709 330.77 287.137 327.3 283.667 325.026C281.034 323.231 277.564 321.975 273.256 321.257C270.983 321.018 269.726 320.24 269.487 318.924C269.248 317.727 270.145 316.411 272.179 314.975C288.573 302.65 299.402 286.317 304.667 265.975Z" fill="#0D131A"/>
<path d="M231.795 283.924C233.231 281.89 234.368 281.112 235.205 281.59C236.043 281.949 235.863 283.206 234.667 285.36C230 294.214 222.282 300.377 211.513 303.847C200.504 307.317 190.752 306.3 182.256 300.795C180.342 299.599 179.684 298.642 180.282 297.924L184.051 298.103C191.949 301.693 200.564 302.112 209.897 299.36C219.111 296.607 226.41 291.462 231.795 283.924Z" fill="#0D131A"/>
<path d="M230.718 194.719C235.863 185.146 241.906 180.36 248.846 180.36C255.786 180.36 261.769 185.146 266.795 194.719C271.821 204.531 274.333 216.317 274.333 230.078C274.333 243.958 271.821 255.804 266.795 265.616C261.769 275.189 255.786 279.975 248.846 279.975C241.906 279.975 235.863 275.189 230.718 265.616C225.573 255.804 223 243.958 223 230.078C223 216.317 225.573 204.531 230.718 194.719ZM248.846 184.847C243.342 184.847 238.675 189.334 234.846 198.309C230.897 207.163 228.923 217.753 228.923 230.078C228.923 242.403 230.897 253.052 234.846 262.027C238.675 271.001 243.342 275.488 248.846 275.488C254.231 275.488 258.897 271.001 262.846 262.027C266.675 253.052 268.59 242.403 268.59 230.078C268.59 217.753 266.675 207.163 262.846 198.309C258.897 189.334 254.231 184.847 248.846 184.847Z" fill="#0D131A"/>
<path d="M238.795 203.693C241.427 195.795 244.778 191.847 248.846 191.847C252.795 191.847 256.026 195.855 258.538 203.872C260.932 211.291 262.128 220.026 262.128 230.077C262.128 240.129 260.932 248.864 258.538 256.283C256.026 264.3 252.795 268.308 248.846 268.308C244.778 268.308 241.427 264.3 238.795 256.283C236.282 248.744 235.026 239.949 235.026 229.898C235.026 219.847 236.282 211.112 238.795 203.693ZM254.051 205.129C252.256 199.265 250.521 196.334 248.846 196.334C247.051 196.334 245.316 199.265 243.641 205.129C241.487 211.949 240.41 220.265 240.41 230.077C240.41 240.009 241.487 248.385 243.641 255.206C245.316 260.949 247.051 263.821 248.846 263.821C250.521 263.821 252.256 260.949 254.051 255.206C256.085 248.265 257.103 239.889 257.103 230.077C257.103 220.265 256.085 211.949 254.051 205.129Z" fill="#0D131A"/>
<path d="M226.59 233.129V228.462L237.897 229.001V233.129H226.59Z" fill="#0D131A"/>
<path d="M271.821 229.539L270.744 233.667L259.615 233.129V229L271.821 229.539Z" fill="#0D131A"/>
<path d="M129.846 284.821L128.769 277.283C136.786 284.941 144.205 290.026 151.026 292.539C156.769 294.573 160.897 294.573 163.41 292.539C166.282 290.265 166.88 285.24 165.205 277.462C163.171 268.727 158.744 259.812 151.923 250.718C144.504 240.787 137.684 233.248 131.462 228.103L133.615 224.154C139.957 228.462 147.436 236.18 156.051 247.308C163.59 257.24 168.197 267.171 169.872 277.103C171.547 286.317 170.35 292.599 166.282 295.949C163.051 298.701 158.385 299.3 152.282 297.744C145.222 295.949 137.744 291.641 129.846 284.821Z" fill="#0D131A"/>
<path d="M124.462 264.001L126.256 258.078C130.803 264.779 136.547 271.121 143.487 277.103C150.308 282.847 154.556 285.18 156.231 284.103C157.547 283.266 156.709 279.856 153.718 273.873C151.325 269.086 148.573 264.479 145.462 260.052C140.915 253.591 134.752 246.83 126.974 239.77L128.59 235.462L138.641 244.437L149.59 256.821C153.299 262.326 156.231 267.83 158.385 273.334C161.137 280.514 161.256 285.18 158.744 287.334C156.111 289.608 151.145 288.112 143.846 282.847C136.906 277.941 130.444 271.659 124.462 264.001Z" fill="#0D131A"/>
<path d="M148.872 259.155L145.82 256.103L153.718 249.462L156.41 253.232L148.872 259.155Z" fill="#0D131A"/>
<path d="M130.744 268.129L133.436 271.898L127.513 277.283L125.718 273.514L130.744 268.129Z" fill="#0D131A"/>
</svg>
