<svg width="638" height="300" viewBox="0 0 638 300" fill="none" xmlns="http://www.w3.org/2000/svg">
<g clip-path="url(#clip0_75_652)">
<path fill-rule="evenodd" clip-rule="evenodd" d="M242.939 29.5C220.713 29.5 206.867 40.5976 201.28 62.7927C209.661 51.6951 219.377 47.5488 230.551 50.2317C236.867 51.8171 241.482 56.4512 246.461 61.4512C254.599 69.8659 264.072 79.5 284.72 79.5C306.946 79.5 320.913 68.4024 326.5 46.2073C318.12 57.3049 308.403 61.4512 297.351 58.6463C291.035 57.061 286.42 52.4268 281.44 47.4268C273.181 39.1341 263.708 29.5 242.939 29.5ZM201.28 79.5C178.933 79.5 165.087 90.5976 159.5 112.793C167.88 101.695 177.597 97.5488 188.771 100.232C195.086 101.817 199.701 106.451 204.681 111.451C212.819 119.866 222.292 129.5 242.939 129.5C265.165 129.5 279.133 118.402 284.72 96.2073C276.339 107.305 266.623 111.451 255.449 108.646C249.133 107.061 244.518 102.427 239.539 97.4268C231.401 89.1341 221.928 79.5 201.28 79.5Z" fill="#38BDF8"/>
</g>
<g clip-path="url(#clip1_75_652)">
<path d="M423.195 68.7578C417.323 68.7578 412.563 73.5235 412.563 79.4023C412.563 85.2812 417.323 90.0469 423.195 90.0469C429.067 90.0469 433.827 85.2812 433.827 79.4023C433.827 73.5235 429.067 68.7578 423.195 68.7578Z" fill="#58C4DC"/>
<path d="M478.492 79.4989C478.492 71.1421 470.763 63.8128 458.456 58.9893C458.62 57.903 458.769 56.8285 458.875 55.7736C460.089 43.7659 457.199 35.0993 450.742 31.366C443.518 27.1896 433.314 30.221 422.996 38.4875C412.678 30.221 402.474 27.1896 395.25 31.366C388.793 35.0993 385.903 43.7659 387.117 55.7736C387.223 56.8285 387.368 57.907 387.536 58.9971C386.51 59.3893 385.504 59.805 384.537 60.2403C373.55 65.1853 367.5 72.0323 367.5 79.4989C367.5 87.8557 375.229 95.185 387.536 100.009C387.368 101.095 387.223 102.169 387.117 103.224C385.903 115.232 388.793 123.898 395.25 127.632C397.47 128.892 399.985 129.536 402.537 129.498C408.653 129.498 415.795 126.275 422.996 120.51C430.193 126.275 437.339 129.498 443.463 129.498C446.015 129.536 448.53 128.892 450.75 127.632C457.207 123.898 460.097 115.232 458.883 103.224C458.777 102.169 458.628 101.095 458.464 100.009C470.771 95.1929 478.5 87.8518 478.5 79.4989M443.416 34.7935C445.057 34.7538 446.678 35.1517 448.115 35.9464C452.598 38.5385 454.611 45.5698 453.632 55.2364C453.565 55.8952 453.487 56.5619 453.393 57.2325C448.276 55.6891 443.036 54.5883 437.731 53.9423C434.515 49.6609 430.938 45.6634 427.041 41.9934C433.161 37.2562 438.905 34.7935 443.412 34.7935M441.309 90.087C439.329 93.5294 437.173 96.8672 434.849 100.087C430.909 100.492 426.952 100.694 422.992 100.691C419.034 100.694 415.077 100.492 411.14 100.087C408.822 96.8671 406.672 93.5293 404.698 90.087C402.718 86.6542 400.918 83.12 399.307 79.4989C400.918 75.8778 402.718 72.3436 404.698 68.9108C406.669 65.4823 408.812 62.1565 411.12 58.9462C415.065 58.5309 419.029 58.3241 422.996 58.3265C426.955 58.3242 430.911 58.5257 434.849 58.9305C437.165 62.1457 439.316 65.4768 441.294 68.9108C443.273 72.3445 445.072 75.8786 446.686 79.4989C445.072 83.1192 443.273 86.6533 441.294 90.087M449.38 86.1655C450.622 89.5593 451.642 93.0307 452.434 96.5576C449 97.6296 445.5 98.4746 441.956 99.0869C443.302 97.053 444.608 94.9367 445.871 92.738C447.12 90.5655 448.291 88.3733 449.395 86.1812M415.56 105.746C417.996 105.895 420.482 105.981 423 105.981C425.518 105.981 428.02 105.895 430.459 105.746C428.146 108.52 425.655 111.14 423 113.589C420.351 111.141 417.866 108.521 415.56 105.746ZM404.041 99.0791C400.495 98.4695 396.994 97.6271 393.558 96.5576C394.347 93.0363 395.363 89.5701 396.601 86.1812C397.689 88.3733 398.856 90.5655 400.125 92.738C401.394 94.9105 402.705 97.0517 404.041 99.0869M396.601 72.8127C395.367 69.4363 394.354 65.9833 393.566 62.4755C396.993 61.4048 400.485 60.5572 404.021 59.9383C402.682 61.9657 401.37 64.0677 400.105 66.2598C398.841 68.4519 397.686 70.6166 396.581 72.8127M430.436 53.2482C428 53.0992 425.514 53.0129 422.977 53.0129C420.46 53.0129 417.98 53.0913 415.537 53.2482C417.842 50.4733 420.328 47.8533 422.977 45.4051C425.632 47.8527 428.124 50.4727 430.436 53.2482ZM445.863 66.2598C444.595 64.0585 443.283 61.9409 441.928 59.9069C445.482 60.5193 448.991 61.3656 452.434 62.4402C451.644 65.9611 450.628 69.4271 449.391 72.8166C448.303 70.6245 447.132 68.4323 445.867 66.2637M392.376 55.2403C391.385 45.5777 393.41 38.5424 397.889 35.9503C399.326 35.1569 400.947 34.7591 402.588 34.7974C407.095 34.7974 412.839 37.2601 418.959 41.9973C415.059 45.6699 411.48 49.6701 408.262 53.9541C402.958 54.6031 397.718 55.6998 392.599 57.2325C392.509 56.5619 392.427 55.8991 392.364 55.2403M386.706 65.0677C387.309 64.8062 387.924 64.5448 388.55 64.2834C389.782 69.4874 391.452 74.5775 393.543 79.4989C391.448 84.4299 389.777 89.5307 388.546 94.7458C378.569 90.6478 372.786 84.9694 372.786 79.4989C372.786 74.3146 377.876 69.0559 386.706 65.0677ZM397.889 123.047C393.41 120.455 391.385 113.42 392.376 103.757C392.439 103.099 392.521 102.436 392.611 101.761C397.728 103.304 402.968 104.405 408.273 105.052C411.49 109.335 415.067 113.335 418.963 117.008C410.431 123.608 402.635 125.785 397.901 123.047M453.628 103.757C454.607 113.424 452.594 120.455 448.111 123.047C443.381 125.793 435.581 123.608 427.053 117.008C430.948 113.335 434.523 109.334 437.738 105.052C443.044 104.406 448.284 103.305 453.401 101.761C453.495 102.436 453.573 103.099 453.64 103.757M457.469 94.738C456.235 89.5259 454.563 84.4279 452.469 79.4989C454.562 74.5672 456.233 69.4666 457.465 64.252C467.423 68.35 473.222 74.0284 473.222 79.4989C473.222 84.9694 467.438 90.6478 457.461 94.7458" fill="#58C4DC"/>
</g>
<g clip-path="url(#clip2_75_652)">
<path d="M400.066 170.542H485.764V186.375H451.769V269.674H434.77V186.375H400.066V170.542Z" fill="black"/>
<path d="M259.126 170.542V186.375H190.433V211.847H245.676V227.68H190.433V253.84H259.126V269.674H173.435V186.375H173.428V170.542H259.126Z" fill="black"/>
<path d="M301.917 170.583H279.672L359.349 269.715H381.659L341.816 220.183L381.595 170.658L359.349 170.693L330.678 206.337L301.917 170.583Z" fill="black"/>
<path d="M324.744 241.394L313.604 227.529L279.609 269.791H301.917L324.744 241.394Z" fill="black"/>
<path fill-rule="evenodd" clip-rule="evenodd" d="M174.031 269.674L94.2473 170.5H73V269.632H89.9979V191.689L152.677 269.674H174.031Z" fill="black"/>
<path d="M489.585 269.068C488.34 269.068 487.282 268.637 486.395 267.773C485.508 266.91 485.07 265.865 485.081 264.627C485.07 263.422 485.508 262.388 486.395 261.525C487.282 260.662 488.34 260.23 489.585 260.23C490.783 260.23 491.831 260.662 492.717 261.525C493.616 262.388 494.065 263.422 494.077 264.627C494.065 265.444 493.857 266.194 493.443 266.864C493.017 267.546 492.476 268.08 491.796 268.466C491.128 268.864 490.391 269.068 489.585 269.068Z" fill="black"/>
<path d="M518.597 227.307H526.13V256.356C526.118 259.026 525.541 261.309 524.414 263.229C523.274 265.149 521.695 266.614 519.669 267.648C517.653 268.671 515.292 269.193 512.608 269.193C510.155 269.193 507.955 268.75 505.997 267.887C504.039 267.023 502.485 265.728 501.345 264.024C500.192 262.32 499.628 260.196 499.628 257.651H507.173C507.184 258.764 507.437 259.73 507.921 260.536C508.404 261.343 509.072 261.956 509.925 262.388C510.788 262.82 511.779 263.036 512.895 263.036C514.105 263.036 515.142 262.786 515.982 262.275C516.823 261.775 517.468 261.025 517.918 260.025C518.355 259.037 518.586 257.81 518.597 256.356V227.307Z" fill="black"/>
<path d="M557.122 238.667C556.938 236.906 556.132 235.532 554.727 234.555C553.309 233.566 551.479 233.078 549.232 233.078C547.655 233.078 546.297 233.317 545.168 233.782C544.039 234.259 543.163 234.896 542.564 235.702C541.966 236.509 541.666 237.429 541.643 238.463C541.643 239.326 541.85 240.076 542.253 240.701C542.657 241.337 543.197 241.871 543.9 242.303C544.591 242.746 545.363 243.109 546.204 243.405C547.056 243.7 547.909 243.95 548.76 244.154L552.688 245.12C554.266 245.484 555.798 245.972 557.26 246.597C558.723 247.211 560.048 247.994 561.21 248.937C562.374 249.88 563.296 251.016 563.975 252.346C564.654 253.675 565 255.231 565 257.026C565 259.446 564.378 261.57 563.122 263.411C561.867 265.24 560.059 266.671 557.686 267.705C555.325 268.727 552.469 269.25 549.106 269.25C545.858 269.25 543.025 268.75 540.641 267.75C538.246 266.762 536.379 265.308 535.032 263.399C533.684 261.491 532.959 259.162 532.855 256.424H540.319C540.423 257.855 540.883 259.048 541.666 260.014C542.46 260.968 543.497 261.673 544.764 262.15C546.043 262.615 547.47 262.854 549.049 262.854C550.696 262.854 552.147 262.604 553.402 262.115C554.646 261.627 555.625 260.945 556.328 260.059C557.042 259.184 557.399 258.151 557.41 256.969C557.399 255.89 557.076 254.992 556.454 254.288C555.821 253.584 554.945 252.993 553.828 252.516C552.7 252.039 551.386 251.607 549.889 251.232L545.122 250.028C541.678 249.153 538.948 247.824 536.955 246.04C534.952 244.257 533.96 241.894 533.96 238.929C533.96 236.498 534.628 234.362 535.977 232.533C537.312 230.704 539.144 229.283 541.459 228.272C543.785 227.25 546.411 226.75 549.336 226.75C552.308 226.75 554.91 227.25 557.157 228.272C559.402 229.283 561.165 230.692 562.443 232.487C563.721 234.282 564.389 236.338 564.424 238.667H557.122Z" fill="black"/>
</g>
<defs>
<clipPath id="clip0_75_652">
<rect width="167" height="100" fill="white" transform="translate(159.5 29.5)"/>
</clipPath>
<clipPath id="clip1_75_652">
<rect width="111" height="100" fill="white" transform="translate(367.5 29.5)"/>
</clipPath>
<clipPath id="clip2_75_652">
<rect width="492" height="100" fill="white" transform="translate(73 170.5)"/>
</clipPath>
</defs>
</svg>
