<svg width="101" height="100" viewBox="0 0 101 100" fill="none" xmlns="http://www.w3.org/2000/svg">
<g clip-path="url(#clip0_4_190)">
<path d="M0.666764 0H41.5238L48.6048 31.8571L39.7477 40.7142C44.9554 48.8191 51.8463 55.7084 59.9524 60.9142L68.8095 52.0618L100.667 59.1428V99.9999H95.9047C77.573 100.031 59.6257 94.7445 44.2381 84.7808C32.8916 77.4378 23.2288 67.775 15.8858 56.4285C5.9221 41.0409 0.635507 23.0936 0.666764 4.7619V0ZM10.3191 9.5238C11.1216 24.3805 15.7988 38.7684 23.8858 51.2571C30.4968 61.4711 39.1955 70.1698 49.4095 76.7808C61.8982 84.8679 76.2861 89.5451 91.1428 90.3475V66.7809L71.8428 62.4951L61.4905 72.8523L58.3333 71.057C46.3459 64.245 36.4217 54.3207 29.6096 42.3333L27.8143 39.1761L38.1715 28.8238L33.8858 9.5238H10.3191Z" fill="#F48200"/>
</g>
<defs>
<clipPath id="clip0_4_190">
<rect width="100" height="100" fill="white" transform="translate(0.666626)"/>
</clipPath>
</defs>
</svg>
