<svg width="101" height="100" viewBox="0 0 101 100" fill="none" xmlns="http://www.w3.org/2000/svg">
<path d="M50.3333 10.5263C48.2598 10.5263 46.2066 10.9347 44.291 11.7282C42.3753 12.5217 40.6347 13.6848 39.1685 15.1509C37.7023 16.6171 36.5393 18.3578 35.7458 20.2734C34.9523 22.1891 34.5439 24.2423 34.5439 26.3158C34.5439 28.3893 34.9523 30.4425 35.7458 32.3582C36.5393 34.2738 37.7023 36.0144 39.1685 37.4806C40.6347 38.9468 42.3753 40.1099 44.291 40.9034C46.2066 41.6969 48.2598 42.1053 50.3333 42.1053C54.521 42.1053 58.5371 40.4417 61.4982 37.4806C64.4593 34.5195 66.1228 30.5034 66.1228 26.3158C66.1228 22.1282 64.4593 18.112 61.4982 15.1509C58.5371 12.1898 54.521 10.5263 50.3333 10.5263ZM24.0175 26.3158C24.0175 19.3364 26.7901 12.6429 31.7253 7.70772C36.6604 2.77255 43.354 0 50.3333 0C57.3127 0 64.0062 2.77255 68.9414 7.70772C73.8766 12.6429 76.6491 19.3364 76.6491 26.3158C76.6491 33.2952 73.8766 39.9887 68.9414 44.9239C64.0062 49.859 57.3127 52.6316 50.3333 52.6316C43.354 52.6316 36.6604 49.859 31.7253 44.9239C26.7901 39.9887 24.0175 33.2952 24.0175 26.3158ZM5.5965 89.4737C5.5965 82.4943 8.36904 75.8008 13.3042 70.8656C18.2394 65.9304 24.9329 63.1579 31.9123 63.1579H68.7544C72.2102 63.1579 75.6322 63.8386 78.825 65.1611C82.0178 66.4836 84.9188 68.422 87.3625 70.8656C89.8061 73.3093 91.7445 76.2103 93.067 79.4031C94.3895 82.5958 95.0702 86.0178 95.0702 89.4737V100H84.5439V89.4737C84.5439 85.2861 82.8803 81.2699 79.9192 78.3088C76.9581 75.3477 72.942 73.6842 68.7544 73.6842H31.9123C27.7247 73.6842 23.7085 75.3477 20.7474 78.3088C17.7863 81.2699 16.1228 85.2861 16.1228 89.4737V100H5.5965V89.4737Z" fill="#2d2d2d"/>
</svg>
