<svg width="101" height="100" viewBox="0 0 101 100" fill="none" xmlns="http://www.w3.org/2000/svg">
<path fill-rule="evenodd" clip-rule="evenodd" d="M8.49606 76.4959C5.01656 70.9276 2.66786 64.7284 1.58416 58.2523C0.500458 51.7763 0.702856 45.1502 2.17996 38.7524C3.65696 32.3546 6.37966 26.3104 10.1927 20.9648C14.0056 15.6192 18.8341 11.077 24.4025 7.59751C29.9709 4.11801 36.1701 1.76941 42.6461 0.685708C49.1221 -0.398092 55.7482 -0.195591 62.146 1.28141C68.5438 2.75851 74.5881 5.48121 79.9336 9.29421C85.2791 13.1071 89.8211 17.9356 93.3011 23.504C100.328 34.7498 102.6 48.3266 99.6171 61.2475C96.6341 74.1684 88.6401 85.375 77.3944 92.402C66.1486 99.43 52.5719 101.701 39.6509 98.718C26.73 95.735 15.5232 87.742 8.49606 76.4959ZM21.1926 75.1132C27.2325 82.254 35.643 86.98 44.8836 88.426C54.1242 89.871 63.5761 87.938 71.5078 82.982C79.4395 78.0254 85.3201 70.3773 88.0721 61.4385C90.8241 52.4996 90.2631 42.8685 86.4921 34.3094L67.1757 46.3798C67.9261 49.7467 67.6137 53.2635 66.2815 56.4454C64.9494 59.6273 62.663 62.3177 59.7377 64.1456C56.8123 65.9736 53.392 66.8492 49.9481 66.6517C46.5043 66.4541 43.2065 65.1933 40.5093 63.0428L21.1926 75.1132ZM80.6043 24.8867C74.5682 17.7354 66.156 13.0003 56.9109 11.5498C47.6658 10.0993 38.2077 12.0308 30.2715 16.9898C22.3353 21.9489 16.4531 29.6031 13.704 38.5484C10.9549 47.4937 11.5232 57.1303 15.3046 65.6905L34.6213 53.6201C33.8708 50.2532 34.1832 46.7364 35.5154 43.5545C36.8476 40.3726 39.1339 37.6822 42.0593 35.8543C44.9846 34.0263 48.405 33.1507 51.8488 33.3482C55.2927 33.5458 58.5905 34.8066 61.2877 36.9571L80.6043 24.8867ZM53.8425 54.7113C55.092 53.9305 55.9802 52.6853 56.3116 51.2497C56.6431 49.814 56.3906 48.3055 55.6099 47.056C54.8291 45.8064 53.5839 44.9182 52.1482 44.5868C50.7125 44.2553 49.204 44.5078 47.9545 45.2886C46.7049 46.0694 45.8168 47.3146 45.4853 48.7502C45.1539 50.1859 45.4063 51.6944 46.1871 52.9439C46.9679 54.1935 48.2131 55.0817 49.6487 55.4131C51.0844 55.7446 52.5929 55.4921 53.8425 54.7113Z" fill="#2d2d2d"/>
</svg>
